PathFileType	4	(X/Y/Z)	/Users/mathieubourgeois/Desktop/Analyse/Traitement/Sujet_01/Transformed_Static_Sujet_01_Tpose.trc
DataRate	CameraRate	NumFrames	NumMarkers	Units	OrigDataRate	OrigDataStartFrame	OrigNumFrames
120.000000	120.000000	4	35	mm	120.000000	84	226
Frame#	Time	LFHD			RFHD			LBHD			RBHD			RSHO			LSHO			CLAV			STRN			T10			RHUM			LHUM			LRAD			RRAD			RWRA			RWRB			RCAR			LCAR			LWRA			LWRB			RFWT			LFWT			LBWT			RBWT			RKNI			LKNI			RKNE			LKNE			RANE			RANI			LANI			LANE			LHEE			RHEE			RTOE			LTOE			
		X1	Y1	Z1	X2	Y2	Z2	X3	Y3	Z3	X4	Y4	Z4	X5	Y5	Z5	X6	Y6	Z6	X7	Y7	Z7	X8	Y8	Z8	X9	Y9	Z9	X10	Y10	Z10	X11	Y11	Z11	X12	Y12	Z12	X13	Y13	Z13	X14	Y14	Z14	X15	Y15	Z15	X16	Y16	Z16	X17	Y17	Z17	X18	Y18	Z18	X19	Y19	Z19	X20	Y20	Z20	X21	Y21	Z21	X22	Y22	Z22	X23	Y23	Z23	X24	Y24	Z24	X25	Y25	Z25	X26	Y26	Z26	X27	Y27	Z27	X28	Y28	Z28	X29	Y29	Z29	X30	Y30	Z30	X31	Y31	Z31	X32	Y32	Z32	X33	Y33	Z33	X34	Y34	Z34	X35	Y35	Z35	

85	0.7	-3.58833527565004	1562.498657226562	131.0541992187499	26.59830665588376	1550.383178710938	252.5649108886718	-153.8907623291016	1569.144775390625	166.7610626220702	-118.292236328125	1555.625	295.3622741699218	-121.4222412109375	1409.329223632812	346.286163330078	-146.5799407958984	1399.569946289062	97.70281982421865	-61.81203842163088	1365.286987304688	195.4421081542968	-20.30395317077639	1265.078857421875	206.0514221191405	-229.8536529541016	1212.430786132812	239.9604187011718	-108.6531219482423	1237.21240234375	589.9866943359374	-135.961181640625	1240.335205078125	-159.9070434570314	-181.3878326416015	1278.7919921875	-178.5688476562501	-160.6267700195313	1272.288208007812	604.9673461914061	-171.6554107666017	1281.828491210938	827.0575561523436	-164.8464508056642	1220.412841796875	822.5311889648436	-216.0092163085939	1215.043823242188	899.8186035156249	-216.6331634521484	1237.056884765625	-476.4869384765626	-175.0977630615234	1287.7431640625	-401.9767150878907	-184.6107330322265	1222.067626953125	-393.0098876953126	-44.88051223754887	930.6083374023438	343.4191894531249	-50.07099914550783	943.33544921875	117.7864151000976	-233.3803253173828	946.9501953125	186.148452758789	-224.7645568847657	956.3623046875	303.1462402343749	-180.5913238525391	435.0619506835938	273.4214477539062	-153.3420104980469	474.3154907226562	213.9888000488281	-162.1633453369141	470.2300109863281	390.3306579589843	-169.6725311279297	458.7750854492188	85.91741180419918	-189.2450256347657	120.5765991210938	379.3993530273438	-175.6045837402344	123.7534484863281	300.8721008300781	-178.6431884765625	123.722541809082	190.3397979736328	-193.9848022460938	113.0603179931641	115.3406295776367	-251.9558563232422	63.80988311767579	163.2537231445312	-248.962158203125	74.90815734863283	345.4123535156249	-1.800389051437421	61.90657043457033	354.7857971191406	0.5504572987556297	57.17042922973634	131.6878814697266	
86	0.7083333333333334	-3.450399160385148	1562.596801757812	131.0552368164062	26.7170600891113	1550.454956054688	252.5601654052734	-153.7863159179688	1569.0986328125	166.7409820556639	-118.1869125366211	1555.552612304688	295.342559814453	-121.4950714111329	1409.649047851562	346.3922729492186	-146.5032501220703	1399.583129882812	97.73284912109365	-61.66897964477541	1365.296875	195.456069946289	-20.17949485778811	1265.099731445312	206.092056274414	-229.7380676269532	1212.422241210938	239.964385986328	-108.6859817504884	1237.260620117188	590.0290527343749	-136.0514984130859	1240.38671875	-159.9288177490236	-181.4935455322265	1278.852783203125	-178.5342712402345	-160.6466674804688	1272.297119140625	604.9668579101561	-171.7564697265626	1281.930908203125	827.0538940429686	-164.9021453857423	1220.534545898438	822.5726318359374	-216.0623168945314	1215.168701171875	899.8348388671874	-217.1889038085937	1237.000122070312	-476.3436584472657	-175.422622680664	1287.762451171875	-401.9954528808594	-185.0921325683593	1222.0791015625	-392.8869018554688	-44.82105636596684	930.5972290039062	343.4737243652343	-49.91742324829103	943.3416748046875	117.836685180664	-233.251953125	946.9561767578125	186.141876220703	-224.6922149658203	956.3713989257812	303.1462707519531	-180.5895385742188	435.0693054199219	273.4245300292969	-151.0095825195313	473.7056884765625	213.6713867187499	-162.1451721191407	470.2348327636719	390.3420104980468	-169.6434173583984	458.7695617675781	85.92751312255855	-189.2437896728516	120.5707550048828	379.3907165527344	-175.5921020507813	123.7536697387695	300.8642272949219	-178.6401977539063	123.7334060668945	190.3490905761718	-193.9806060791016	113.0653839111328	115.347915649414	-251.9656066894532	63.81805038452149	163.2472991943359	-248.9654998779297	74.90588378906251	345.4082641601562	-1.787855148315473	61.90748214721682	354.78955078125	0.5545695424079734	57.15659713745118	131.684814453125	
87	0.7166666666666667	-3.287299633026139	1562.706909179688	131.061050415039	26.83799743652341	1550.531494140625	252.563003540039	-153.6276092529297	1569.062622070312	166.6985931396483	-118.0832443237305	1555.48681640625	295.3194580078124	-121.4466247558594	1409.665283203125	346.4014282226561	-146.4300384521484	1399.584594726562	97.76947021484365	-58.27707672119143	1364.74755859375	194.5680084228515	-20.0499019622803	1265.108642578125	206.1351470947265	-229.6320953369141	1212.404541015625	239.9798583984374	-108.6895904541016	1237.301025390625	590.0539550781249	-136.1324615478515	1240.47314453125	-159.9510498046876	-181.5970458984375	1278.91015625	-178.4965820312501	-160.657455444336	1272.294555664062	604.9841308593749	-171.8352966308595	1282.051879882812	827.0588378906249	-164.9354858398439	1220.650756835938	822.5955200195311	-216.1309356689454	1215.28955078125	899.8409423828124	-217.6975555419921	1236.920288085938	-476.2212524414063	-175.8120574951171	1287.767700195312	-401.9649047851563	-185.4559783935546	1222.0849609375	-392.8181762695313	-44.76792907714848	930.6005249023438	343.5452880859374	-49.77411270141603	943.3473510742188	117.8877029418945	-233.1279449462891	946.9652709960938	186.1405029296874	-224.6047058105469	956.3663940429688	303.1430358886718	-180.5486755371094	435.0694274902344	273.4326171875	-150.91162109375	473.6792297363281	213.6936492919921	-162.1272888183594	470.2304077148438	390.3562316894531	-169.5773162841797	458.7887268066406	85.94292449951168	-189.2472534179688	120.5843734741211	379.4047546386719	-175.6026306152344	123.7570266723633	300.8679809570312	-178.6349334716797	123.7376251220703	190.3570556640625	-193.9849395751953	113.0769500732422	115.3528823852539	-251.9653625488282	63.83017730712891	163.2559356689453	-248.9596405029297	74.9121780395508	345.3979187011718	-1.792626142501875	61.91030502319338	354.7906799316406	0.5500158667564231	57.1533432006836	131.6840667724609	
88	0.725	-3.12629127502443	1562.849243164062	131.0851287841796	26.97392082214352	1550.620361328125	252.5797424316405	-153.5187225341797	1568.998657226562	166.7247161865233	-117.9807205200196	1555.388061523438	295.3042602539061	-121.3784103393555	1409.69091796875	346.4116821289061	-146.3716735839844	1399.595336914062	97.80485534667959	-58.02649688720705	1364.750610351562	194.521514892578	-19.94462966918948	1265.1220703125	206.1918029785155	-229.519515991211	1212.398315429688	239.9796752929686	-108.6952362060548	1237.34130859375	590.0963134765624	-136.2209167480468	1240.56884765625	-159.9586639404298	-181.7167663574218	1278.9765625	-178.4364776611329	-160.6583099365235	1272.305297851562	604.9834594726561	-171.9096984863282	1282.161743164062	827.0707397460936	-164.979949951172	1220.763793945312	822.6109619140624	-216.1892395019532	1215.414794921875	899.8338012695311	-218.1942138671874	1236.859619140625	-476.1101074218751	-176.1878356933593	1287.786987304688	-401.9546508789063	-185.8108215332031	1222.103515625	-392.7435913085938	-44.69282531738286	930.5853271484375	343.6025695800781	-49.63201904296876	943.3412475585938	117.9342422485351	-233.002182006836	946.9577026367188	186.1386566162109	-224.5438995361328	956.3706665039062	303.1436157226562	-180.5240325927735	435.072998046875	273.4407043457031	-150.8381500244141	473.6637573242188	213.7172851562499	-162.1136322021485	470.2379455566406	390.3733520507812	-169.5218811035156	458.7798156738281	85.96642303466793	-189.2598724365235	120.5988006591797	379.4021301269531	-175.6014099121094	123.7542114257813	300.8648071289062	-178.6504974365235	123.733139038086	190.3538055419922	-193.9798889160156	113.0685348510742	115.3563079833984	-251.9486389160157	63.82495498657227	163.2570343017578	-248.9620513916016	74.9208221435547	345.4044494628906	-1.79481410980229	61.90121078491213	354.7971496582031	0.5542613863944846	57.1559066772461	131.6830902099609	
